<?xml version="1.0" encoding="utf-8"?>
<!-- Generator: Adobe Illustrator 18.1.1, SVG Export Plug-In . SVG Version: 6.00 Build 0)  -->
<svg version="1.1" id="Capa_1" xmlns="http://www.w3.org/2000/svg" xmlns:xlink="http://www.w3.org/1999/xlink" x="0px" y="0px"
	 viewBox="0 0 841.9 595.3" enable-background="new 0 0 841.9 595.3" xml:space="preserve">
<g id="Layer_2">
</g>
<g id="Layer_1">
	<g>
		<g>
			<g>
				<path fill="#211915" d="M226.8,255.4h-39.4V357c0,27.6-11,48.7-44,48.7c-21.4,0-34.2-11.4-34.2-42.9V255.4H69.8v111.2
					c0,46.6,20,70.1,66.7,70.1c19.8,0,41.1-11.7,50.8-29.7h0.7V432h38.8L226.8,255.4L226.8,255.4z"/>
				<polygon fill="#CB0017" points="92.7,206.4 203.8,206.4 203.8,226 92.7,226 				"/>
				<path fill="#CB0017" d="M134.7,122.8c0-7.7,6.2-14,14-14c7.7,0,14,6.2,14,14s-6.2,14-14,14S134.7,130.5,134.7,122.8L134.7,122.8
					z"/>
				<path fill="#CB0017" d="M69.8,170.4c0-12.6,10.2-22.9,22.9-22.9s22.9,10.2,22.9,22.9s-10.2,22.9-22.9,22.9
					S69.8,183.1,69.8,170.4L69.8,170.4z"/>
				<path fill="#CB0017" d="M125.3,170.4c0-12.6,10.2-22.9,22.9-22.9c12.6,0,22.9,10.2,22.9,22.9s-10.2,22.9-22.9,22.9
					C135.6,193.3,125.3,183.1,125.3,170.4L125.3,170.4z"/>
				<path fill="#CB0017" d="M180.9,170.4c0-12.6,10.2-22.9,22.9-22.9s22.9,10.2,22.9,22.9s-10.2,22.9-22.9,22.9
					S180.9,183.1,180.9,170.4L180.9,170.4z"/>
			</g>
			<g enable-background="new    ">
				<path fill="#CB0017" d="M342,339h20.1l-41.3,95.2h-6.3L272.2,339h20.3l25.3,57.6L342,339z"/>
				<path fill="#CB0017" d="M384,299.7c3.1,0,5.7,1.1,7.8,3.2c2.2,2.1,3.3,4.7,3.3,7.7c0,3-1.1,5.6-3.3,7.7
					c-2.2,2.2-4.8,3.3-7.8,3.3c-2.8,0-5.4-1.1-7.5-3.3c-2.2-2.2-3.3-4.8-3.3-7.7c0-2.8,1.1-5.4,3.3-7.6
					C378.6,300.8,381.1,299.7,384,299.7z M374.8,339h18.5v93.6h-18.5V339z"/>
				<path fill="#CB0017" d="M438.5,339v21.5l1-1.6c8.9-14.4,17.9-21.7,26.8-21.7c7,0,14.3,3.5,21.9,10.6l-9.8,16.3
					c-6.4-6.1-12.4-9.2-17.9-9.2c-6,0-11.1,2.8-15.5,8.5c-4.4,5.7-6.6,12.4-6.6,20.2v48.9h-18.6V339H438.5z"/>
				<path fill="#CB0017" d="M490.7,353.9l34.8-34.2V339h29.6v16.7h-29.6v45.8c0,10.7,4.4,16,13.3,16c6.6,0,13.7-2.2,21.1-6.6v17.3
					c-7.1,4-14.9,6-23.3,6c-8.5,0-15.5-2.5-21.2-7.4c-1.8-1.5-3.2-3.2-4.4-5c-1.2-1.9-2.1-4.3-2.9-7.3c-0.8-3-1.2-8.8-1.2-17.2
					v-41.5h-16.3V353.9z"/>
				<path fill="#CB0017" d="M631.3,432.6v-12c-3.9,4.3-8.4,7.7-13.5,10c-5.1,2.4-10.1,3.6-15.1,3.6c-5.9,0-11.3-1.5-16.3-4.4
					c-5-2.9-8.7-6.9-11.3-12c-2.5-5-3.8-13.4-3.8-25.2V339h18.5v53.3c0,9.8,1.4,16.7,4.2,20.6c2.8,3.9,7.7,5.8,14.8,5.8
					c8.8,0,16.3-4.3,22.5-12.9V339h18.5v93.6H631.3z"/>
				<path fill="#CB0017" d="M733.2,376.4v39.8c0,3.2,1.1,4.8,3.3,4.8c2.2,0,5.7-1.7,10.5-5v11.3c-4.2,2.7-7.6,4.6-10.1,5.5
					c-2.5,1-5.2,1.5-8,1.5c-7.9,0-12.6-3.1-14-9.4c-7.9,6.1-16.2,9.2-25.1,9.2c-6.5,0-11.9-2.2-16.3-6.5c-4.3-4.3-6.5-9.7-6.5-16.2
					c0-5.9,2.1-11.2,6.4-15.8c4.2-4.6,10.3-8.3,18.1-11l23.7-8.1v-5c0-11.3-5.6-16.9-16.9-16.9c-10.1,0-19.9,5.2-29.5,15.7v-20.2
					c7.2-8.5,17.5-12.7,31-12.7c10.1,0,18.2,2.6,24.3,7.9c2,1.7,3.9,4,5.5,6.8c1.6,2.8,2.7,5.6,3.1,8.4
					C733,363.2,733.2,368.5,733.2,376.4z M715,414.1v-27.8l-12.4,4.8c-6.3,2.5-10.8,5-13.4,7.6c-2.6,2.5-3.9,5.7-3.9,9.5
					c0,3.9,1.2,7,3.7,9.5c2.5,2.4,5.7,3.7,9.6,3.7C704.5,421.3,710,418.9,715,414.1z"/>
				<path fill="#CB0017" d="M762.2,290.5h18.5v142.1h-18.5V290.5z"/>
			</g>
		</g>
		<g enable-background="new    ">
			<path fill="#211915" d="M536.8,253c0-6-1.6-10.4-4.7-13.4c-3.2-2.9-7.7-4.4-13.8-4.4c-4.1,0-8,0.7-11.5,2.2s-6.6,3.5-9,5.9
				l-5.6-6.7c2.9-2.9,6.6-5.2,11.3-7.1c4.7-1.9,10-2.8,15.9-2.8c3.7,0,7.3,0.5,10.5,1.6s6.1,2.6,8.6,4.7c2.5,2.1,4.4,4.7,5.8,7.8
				c1.4,3.2,2.1,6.9,2.1,11.1v30.3c0,2.7,0.1,5.4,0.3,8.3c0.2,2.9,0.5,5.3,0.9,7.3h-9c-0.3-1.7-0.5-3.5-0.7-5.5
				c-0.2-2-0.3-3.9-0.3-5.8h-0.3c-3.2,4.6-6.7,8-10.7,10c-4,2-8.8,3-14.4,3c-2.7,0-5.4-0.4-8.2-1.1c-2.8-0.7-5.4-2-7.7-3.6
				c-2.3-1.7-4.2-3.9-5.8-6.5c-1.5-2.7-2.3-5.9-2.3-9.8c0-5.3,1.4-9.6,4.1-12.7c2.7-3.1,6.3-5.4,10.9-7c4.5-1.5,9.7-2.5,15.6-3
				c5.9-0.4,12-0.7,18.3-0.7V253z M533.9,263.1c-4.1,0-8.3,0.2-12.5,0.5c-4.2,0.3-8,1-11.4,2.1c-3.4,1-6.2,2.5-8.4,4.5
				c-2.2,2-3.3,4.6-3.3,7.8c0,2.5,0.5,4.5,1.4,6.2c0.9,1.7,2.2,3,3.8,4.1c1.6,1,3.3,1.8,5.3,2.2c1.9,0.4,3.9,0.7,5.8,0.7
				c3.6,0,6.7-0.6,9.5-1.9c2.8-1.2,5.1-2.9,7-5c1.9-2.1,3.3-4.6,4.3-7.3c1-2.8,1.5-5.7,1.5-8.7v-5.2H533.9z"/>
			<path fill="#211915" d="M615.1,297.8c-0.2-1.9-0.3-3.9-0.4-6.2c-0.1-2.3-0.1-4.1-0.1-5.6h-0.3c-2,4-5.2,7.3-9.6,9.8
				c-4.4,2.5-9.1,3.8-14.1,3.8c-8.8,0-15.4-2.6-19.8-7.8c-4.4-5.2-6.6-12.1-6.6-20.7v-42.5h10.1v38.3c0,3.7,0.3,7,0.9,9.9
				s1.6,5.5,3,7.6c1.4,2.1,3.4,3.8,5.8,5c2.4,1.2,5.5,1.8,9.1,1.8c2.7,0,5.3-0.5,7.8-1.6c2.5-1.1,4.8-2.7,6.7-5c2-2.2,3.6-5,4.7-8.4
				c1.2-3.4,1.8-7.4,1.8-12.1v-35.5h10.1v54c0,1.9,0,4.3,0.1,7.3c0.1,3,0.2,5.6,0.4,8H615.1z"/>
			<path fill="#211915" d="M653.7,297.8h-10.1V185.9h10.1V297.8z"/>
			<path fill="#211915" d="M716.9,253c0-6-1.6-10.4-4.7-13.4c-3.2-2.9-7.7-4.4-13.8-4.4c-4.1,0-8,0.7-11.5,2.2s-6.6,3.5-9,5.9
				l-5.6-6.7c2.9-2.9,6.6-5.2,11.3-7.1c4.7-1.9,10-2.8,15.9-2.8c3.7,0,7.3,0.5,10.5,1.6s6.1,2.6,8.6,4.7c2.5,2.1,4.4,4.7,5.8,7.8
				c1.4,3.2,2.1,6.9,2.1,11.1v30.3c0,2.7,0.1,5.4,0.3,8.3c0.2,2.9,0.5,5.3,0.9,7.3h-9c-0.3-1.7-0.5-3.5-0.7-5.5
				c-0.2-2-0.3-3.9-0.3-5.8h-0.3c-3.2,4.6-6.7,8-10.7,10c-4,2-8.8,3-14.4,3c-2.7,0-5.4-0.4-8.2-1.1c-2.8-0.7-5.4-2-7.7-3.6
				c-2.3-1.7-4.2-3.9-5.8-6.5c-1.5-2.7-2.3-5.9-2.3-9.8c0-5.3,1.4-9.6,4.1-12.7c2.7-3.1,6.3-5.4,10.9-7c4.5-1.5,9.7-2.5,15.6-3
				c5.9-0.4,12-0.7,18.3-0.7V253z M714,263.1c-4.1,0-8.3,0.2-12.5,0.5c-4.2,0.3-8,1-11.4,2.1c-3.4,1-6.2,2.5-8.4,4.5
				c-2.2,2-3.3,4.6-3.3,7.8c0,2.5,0.5,4.5,1.4,6.2c0.9,1.7,2.2,3,3.8,4.1c1.6,1,3.3,1.8,5.3,2.2c1.9,0.4,3.9,0.7,5.8,0.7
				c3.6,0,6.7-0.6,9.5-1.9c2.8-1.2,5.1-2.9,7-5c1.9-2.1,3.3-4.6,4.3-7.3c1-2.8,1.5-5.7,1.5-8.7v-5.2H714z"/>
		</g>
	</g>
</g>
</svg>
